<!-- Generator: Adobe Illustrator 18.1.0, SVG Export Plug-In  -->

<svg version="1.1"

	 xmlns="http://www.w3.org/2000/svg" xmlns:xlink="http://www.w3.org/1999/xlink" xmlns:a="http://ns.adobe.com/AdobeSVGViewerExtensions/3.0/"

	 x="0px" y="0px" width="575.1px" height="90px" viewBox="0 0 575.1 90" enable-background="new 0 0 575.1 90" xml:space="preserve"

	>

<defs>

</defs>

<g>

	<path fill="#3D6892" d="M100.7,9.8h21.2c18,0,20.8,17.5,20.8,29.5c0,13.3-5.6,29-20.8,29h-21.2V9.8z M121.9,63.6

		c11.5,0,16.2-12.2,16.2-24.4c0-17.7-6.1-24.9-16.2-24.9h-16.7v49.3H121.9z"/>

	<path fill="#3D6892" d="M150.9,14.3c0-1,0.5-1.6,1.6-1.6h2.9c1,0,1.5,0.7,1.5,1.6v4.5c0,1-0.6,1.5-1.5,1.5h-2.9

		c-0.9,0-1.6-0.6-1.6-1.5V14.3z M151.5,25.9h4.6v42.5h-4.6V25.9z"/>

	<path fill="#3D6892" d="M171.1,52.8c-4.3-2.3-5.4-7.5-5.4-12c0-10.3,4.9-15.1,13.8-15.1h25v3.3l-7.3,1.2c1.1,1.5,3.3,3.6,3.3,10.6

		c0,4.8-1.8,14.9-13.2,14.9h-12.5c-1.3,0-4.6,0.3-4.6,3.1c0,2.5,2.4,3.3,4.3,3.3h16.8c6.9,0,10.8,4.4,10.8,10.9v4.8

		c0,4.8-1.5,12-12,12h-12c-7.5,0-12.7-4.1-12.7-12.3v-7l2.4-6.3c-1.7-1.3-2.2-3.5-2.2-5.3C165.6,56.5,167.3,53.3,171.1,52.8z

		 M178.1,85.4h12c5,0,7.4-2.4,7.4-7.5v-4.5c0-4.1-1.4-6.6-6.9-6.6h-16.1c-3.1,0-4.6-1.2-4.6-1.2v12.1

		C170,84.5,175.1,85.4,178.1,85.4z M178.9,51.2h7.9c7.2,0,9.1-5.9,9-10.4c-0.2-6.8-2.4-10.6-7.9-10.6h-8.8c-7.3,0-9,5-9,10.6

		C170.2,46.3,172.5,51.2,178.9,51.2z"/>

	<path fill="#3D6892" d="M210.6,14.3c0-1,0.5-1.6,1.6-1.6h2.9c1,0,1.5,0.7,1.5,1.6v4.5c0,1-0.6,1.5-1.5,1.5h-2.9

		c-0.9,0-1.6-0.6-1.6-1.5V14.3z M211.3,25.9h4.6v42.5h-4.6V25.9z"/>

	<path fill="#3D6892" d="M226.5,5.7h4.6v47.5c0,8.9,2.9,10,5.5,10.6c0,0,6.2,1.4,6.7,1.4v3.2h-6.5c-6.4,0-10.3-4.1-10.3-15.1V5.7z"

		/>

	<path fill="#3D6892" d="M264.1,25.6c9.9,0,16.2,1,16.2,15c0,6.2-3.5,9.1-10.9,9.1h-18.5c0,12.1,2.9,14.5,9.4,14.5

		c7.4,0,13.2-0.2,19.2-1.1v3.4c-6.5,1.8-12.5,2.3-19.2,2.2c-10.8-0.1-14-5.5-14-21.8C246.3,28,251.4,25.6,264.1,25.6z M269.3,45.2

		c3.8,0,6.4-1,6.4-4.6c0-9.6-2.7-10.5-11.6-10.5c-9.7,0-13.2,0.9-13.2,15.1H269.3z"/>

	<path fill="#3D6892" d="M306.1,25.6c9.9,0,16.2,1,16.2,15c0,6.2-3.5,9.1-10.9,9.1h-18.5c0,12.1,2.9,14.5,9.4,14.5

		c7.4,0,13.2-0.2,19.2-1.1v3.4c-6.5,1.8-12.5,2.3-19.2,2.2c-10.8-0.1-14-5.5-14-21.8C288.3,28,293.4,25.6,306.1,25.6z M311.3,45.2

		c3.8,0,6.4-1,6.4-4.6c0-9.6-2.7-10.5-11.6-10.5c-9.7,0-13.2,0.9-13.2,15.1H311.3z"/>

	<path fill="#3D6892" d="M331.2,25.9h3.1l1.5,5.4c4.9-2.8,9.6-5.8,16.4-5.8c2.3,0,4.7,0.1,5.9,0.6v4.5c-1.3-0.3-3.6-0.5-5.9-0.5

		c-6.6,0-10.2,2-16.4,4.9v33.4h-4.6V25.9z"/>

	<path fill="#3D6892" d="M373,25.9l8.5,29.4l7.6-29.4h11.2l-3,11.4l7,17.9l8.4-29.4h12L411,68.4h-12.5L392.2,53l-4.8,15.4h-12.7

		L361,25.9H373z"/>

	<path fill="#3D6892" d="M428.9,12.5c0-1.2,0.6-2,1.9-2h8.4c1.2,0,1.8,0.9,1.8,2v7.1c0,1.2-0.7,1.8-1.8,1.8h-8.4

		c-1.1,0-1.9-0.7-1.9-1.8V12.5z M429.3,25.9h11.2v42.5h-11.2V25.9z"/>

	<path fill="#3D6892" d="M447.7,12.5c0-1.2,0.6-2,1.9-2h8.4c1.2,0,1.8,0.9,1.8,2v7.1c0,1.2-0.7,1.8-1.8,1.8h-8.4

		c-1.1,0-1.9-0.7-1.9-1.8V12.5z M448.2,25.9h11.2v42.8c0.1,6.9-0.1,15-3,21.3h-8.2V25.9z"/>

	<path fill="#3D6892" d="M465.3,25.9h34.3v9.4l-18.2,23.5h18.2c0.1,0.1,0,9.4,0,9.4h-33.1v-9.4l19.1-23.6h-20.3V25.9z"/>

	<path fill="#3D6892" d="M522.9,25.6c12.3,0,18,1.4,18,15.5c0,7.6-4.2,10.6-11.8,10.6h-13.5c0,7.7,2.9,8.1,9,8.1

		c6.5,0,9.6,0,15.6-0.8v7.6c-6,2.2-15.1,2.2-21.8,2.2c-10.8,0-14-6.3-14-21.8C504.4,28.7,509.5,25.6,522.9,25.6z M526.2,43.6

		c2.3,0,3.5-1.1,3.5-3.2c0-5.4-0.8-6.3-6.1-6.3c-5.9,0-8.1,0.3-8,9.5H526.2z"/>

	<path fill="#3D6892" d="M547,25.9h9.4l1.8,5.4c2.9-2.8,6.9-5.8,12.2-5.8c1.8,0,3.6,0.1,4.7,0.5v10.8c-1.1-0.1-3.7-0.2-6.1-0.2

		c-4.6,0-8,0.8-10.8,4.7v27.1H547V25.9z"/>

</g>

<g>

	<rect x="2" y="2" fill="#853E82" width="72" height="72"/>

	<path fill="#FFFFFF" d="M72,4v68H4V4H72 M76,0H0v76h76V0L76,0z"/>

</g>

<g>

	<rect x="46" y="46" fill="#7E9261" width="42" height="42"/>

	<path fill="#FFFFFF" d="M86,48v38H48V48H86 M90,44H44v46h46V44L90,44z"/>

</g>

<g>

	<rect x="33" y="62" fill="#8CC1D2" width="18" height="18"/>

	<path fill="#FFFFFF" d="M49,64v14H35V64H49 M53,60H31v22h22V60L53,60z"/>

</g>

</svg>

